<?xml version="1.0" encoding="UTF-8" standalone="no"?>
<!-- Created with Inkscape (http://www.inkscape.org/) -->

<svg
   xmlns:dc="http://purl.org/dc/elements/1.1/"
   xmlns:cc="http://creativecommons.org/ns#"
   xmlns:rdf="http://www.w3.org/1999/02/22-rdf-syntax-ns#"
   xmlns:svg="http://www.w3.org/2000/svg"
   xmlns="http://www.w3.org/2000/svg"
   xmlns:sodipodi="http://sodipodi.sourceforge.net/DTD/sodipodi-0.dtd"
   xmlns:inkscape="http://www.inkscape.org/namespaces/inkscape"
   width="210mm"
   height="297mm"
   viewBox="0 0 210 297"
   version="1.1"
   id="svg8"
   inkscape:version="0.92.1 r15371"
   sodipodi:docname="1.svg">
  <defs
     id="defs2">
    <inkscape:perspective
       sodipodi:type="inkscape:persp3d"
       inkscape:vp_x="0 : 148.5 : 1"
       inkscape:vp_y="0 : 1000 : 0"
       inkscape:vp_z="210 : 148.5 : 1"
       inkscape:persp3d-origin="105 : 99 : 1"
       id="perspective4700" />
  </defs>
  <sodipodi:namedview
     id="base"
     pagecolor="#ffffff"
     bordercolor="#666666"
     borderopacity="1.0"
     inkscape:pageopacity="0.0"
     inkscape:pageshadow="2"
     inkscape:zoom="1.979899"
     inkscape:cx="685.79408"
     inkscape:cy="760.64561"
     inkscape:document-units="mm"
     inkscape:current-layer="layer3"
     showgrid="false"
     inkscape:window-width="3840"
     inkscape:window-height="2089"
     inkscape:window-x="2880"
     inkscape:window-y="0"
     inkscape:window-maximized="1" />
  <metadata
     id="metadata5">
    <rdf:RDF>
      <cc:Work
         rdf:about="">
        <dc:title />
        <dc:format>image/svg+xml</dc:format>
        <dc:type
           rdf:resource="http://purl.org/dc/dcmitype/StillImage" />
      </cc:Work>
    </rdf:RDF>
  </metadata>
  <g
     inkscape:groupmode="layer"
     id="layer3"
     inkscape:label="Layer 1">
    <path
       style="fill:#e9ddaf;fill-rule:evenodd;stroke:#000000;stroke-width:0.26458332px;stroke-linecap:butt;stroke-linejoin:miter;stroke-opacity:1"
       d="m 179.33785,116.59307 22.04974,-38.353178 -22.85155,-10.423512 -37.685,18.976136 58.39839,19.243404 z"
       id="path4651"
       inkscape:connector-curvature="0" />
    <flowRoot
       transform="matrix(0.19087766,0.18322133,-0.18322133,0.19087766,112.93634,-176.47475)"
       style="font-style:normal;font-variant:normal;font-weight:normal;font-stretch:normal;font-size:40px;line-height:125%;font-family:'Bitstream Vera Serif';-inkscape-font-specification:'Bitstream Vera Serif';letter-spacing:0px;word-spacing:0px;fill:#aca793;fill-opacity:1;stroke:none;stroke-width:1px;stroke-linecap:butt;stroke-linejoin:miter;stroke-opacity:1;"
       id="flowRoot5367"
       xml:space="preserve"><flowRegion
         style="fill:#aca793;"
         id="flowRegion5361"><rect
           style="fill:#aca793;"
           y="513.39771"
           x="382.84781"
           height="186.87822"
           width="243.44676"
           id="rect5359" /></flowRegion><flowPara
         id="flowPara5363">Ahoj babi, jak se máš</flowPara><flowPara
         id="flowPara5365">2. řádek</flowPara></flowRoot>    <ellipse
       style="color:#000000;display:inline;overflow:visible;visibility:visible;opacity:1;fill:#ffcc00;fill-opacity:1;fill-rule:nonzero;stroke:none;stroke-width:2.89999986;stroke-linecap:round;stroke-linejoin:round;stroke-miterlimit:4;stroke-dasharray:none;stroke-dashoffset:0;stroke-opacity:1;marker:none;enable-background:accumulate"
       id="path4657"
       cx="37.041668"
       cy="84.388382"
       rx="25.324406"
       ry="22.489584" />
    <path
       style="color:#000000;display:inline;overflow:visible;visibility:visible;opacity:1;fill:#00ff00;fill-opacity:1;fill-rule:nonzero;stroke:none;stroke-width:10.96062946;stroke-linecap:round;stroke-linejoin:round;stroke-miterlimit:4;stroke-dasharray:none;stroke-dashoffset:0;stroke-opacity:1;marker:none;enable-background:accumulate"
       d="M 21.650391 10.785156 L 21.650391 141.0957 L 153.98047 141.0957 L 153.98047 10.785156 L 21.650391 10.785156 z M 85.722656 20.316406 L 142.36328 76.957031 L 86.585938 132.73438 L 29.945312 76.09375 L 85.722656 20.316406 z "
       transform="scale(0.26458333)"
       id="rect4587" />
    <g
       style="fill:#00ff00"
       id="g4633"
       transform="rotate(60,47.337235,63.351598)">
      <rect
         style="color:#000000;display:inline;overflow:visible;visibility:visible;opacity:1;fill:#00ff00;fill-opacity:1;fill-rule:nonzero;stroke:none;stroke-width:2.89999986;stroke-linecap:round;stroke-linejoin:round;stroke-miterlimit:4;stroke-dasharray:none;stroke-dashoffset:0;stroke-opacity:1;marker:none;enable-background:accumulate"
         id="rect4629"
         width="35.01231"
         height="34.477768"
         x="5.728313"
         y="2.8535929" />
      <rect
         style="color:#000000;display:inline;overflow:visible;visibility:visible;opacity:1;fill:#00ff00;fill-opacity:1;fill-rule:nonzero;stroke:none;stroke-width:2.89999986;stroke-linecap:round;stroke-linejoin:round;stroke-miterlimit:4;stroke-dasharray:none;stroke-dashoffset:0;stroke-opacity:1;marker:none;enable-background:accumulate"
         id="rect4631"
         width="21.194202"
         height="20.870625"
         x="19.838474"
         y="-12.236792"
         transform="rotate(45)" />
    </g>
    <g
       id="g4655"
       transform="rotate(89.675632,17.623915,56.00558)">
      <g
         id="g4647">
        <rect
           y="2.8535929"
           x="5.728313"
           height="34.477768"
           width="35.01231"
           id="rect4643"
           style="color:#000000;display:inline;overflow:visible;visibility:visible;opacity:1;fill:#ff0000;fill-opacity:1;fill-rule:nonzero;stroke:none;stroke-width:2.89999986;stroke-linecap:round;stroke-linejoin:round;stroke-miterlimit:4;stroke-dasharray:none;stroke-dashoffset:0;stroke-opacity:1;marker:none;enable-background:accumulate" />
        <rect
           transform="rotate(90.976785)"
           y="-33.572201"
           x="9.2587261"
           height="20.870625"
           width="21.194202"
           id="rect4645"
           style="color:#000000;display:inline;overflow:visible;visibility:visible;opacity:1;fill:#668000;fill-opacity:1;fill-rule:nonzero;stroke:none;stroke-width:2.89999986;stroke-linecap:round;stroke-linejoin:round;stroke-miterlimit:4;stroke-dasharray:none;stroke-dashoffset:0;stroke-opacity:1;marker:none;enable-background:accumulate" />
      </g>
      <g
         id="g4653"
         transform="rotate(60,47.337235,63.351598)">
        <rect
           style="color:#000000;display:inline;overflow:visible;visibility:visible;opacity:1;fill:#ff0000;fill-opacity:1;fill-rule:nonzero;stroke:none;stroke-width:2.89999986;stroke-linecap:round;stroke-linejoin:round;stroke-miterlimit:4;stroke-dasharray:none;stroke-dashoffset:0;stroke-opacity:1;marker:none;enable-background:accumulate"
           id="rect4649"
           width="35.01231"
           height="34.477768"
           x="5.728313"
           y="2.8535929" />
        <rect
           style="color:#000000;display:inline;overflow:visible;visibility:visible;opacity:1;fill:#668000;fill-opacity:1;fill-rule:nonzero;stroke:none;stroke-width:2.89999986;stroke-linecap:round;stroke-linejoin:round;stroke-miterlimit:4;stroke-dasharray:none;stroke-dashoffset:0;stroke-opacity:1;marker:none;enable-background:accumulate"
           id="rect4651"
           width="21.194202"
           height="20.870625"
           x="19.838474"
           y="-12.236792"
           transform="rotate(45)" />
      </g>
    </g>
    <ellipse
       ry="13.418156"
       rx="15.10952"
       cy="84.388382"
       cx="37.041668"
       id="ellipse4659"
       style="color:#000000;display:inline;overflow:visible;visibility:visible;opacity:1;fill:#0d8aec;fill-opacity:1;fill-rule:nonzero;stroke:none;stroke-width:2.9000001;stroke-linecap:round;stroke-linejoin:round;stroke-miterlimit:4;stroke-dasharray:none;stroke-dashoffset:0;stroke-opacity:1;marker:none;enable-background:accumulate" />
    <circle
       style="color:#000000;display:inline;overflow:visible;visibility:visible;opacity:1;fill:#22d4d9;fill-opacity:0.55462186;fill-rule:nonzero;stroke:#f2d80d;stroke-width:2.89999986;stroke-linecap:round;stroke-linejoin:round;stroke-miterlimit:4;stroke-dasharray:none;stroke-dashoffset:0;stroke-opacity:1;marker:none;enable-background:accumulate"
       id="path4661"
       cx="68.791672"
       cy="42.999996"
       r="20.410715" />
    <g
       id="g4671"
       transform="translate(-19.172126,-91.21956)">
      <circle
         r="33.94323"
         cy="179.63103"
         cx="116.26225"
         id="path4667"
         style="color:#000000;display:inline;overflow:visible;visibility:visible;opacity:1;fill:#cccccc;fill-opacity:1;fill-rule:nonzero;stroke:none;stroke-width:0.69999999;stroke-linecap:round;stroke-linejoin:round;stroke-miterlimit:4;stroke-dasharray:none;stroke-dashoffset:0;stroke-opacity:1;marker:none;enable-background:accumulate" />
      <path
         inkscape:transform-center-y="-3.1873767"
         inkscape:transform-center-x="-0.1501894"
         d="m 131.49661,200.78296 -16.72173,-13.13945 -17.096927,12.64741 7.329067,-19.96363 -17.311647,-12.35188 21.251347,0.80125 6.39774,-20.28129 5.80499,20.45884 21.26567,-0.18266 -17.66367,11.84301 z"
         inkscape:randomized="0"
         inkscape:rounded="0"
         inkscape:flatsided="false"
         sodipodi:arg2="1.5853448"
         sodipodi:arg1="0.95702623"
         sodipodi:r2="10.381361"
         sodipodi:r1="28.770916"
         sodipodi:cy="177.26324"
         sodipodi:cx="114.9259"
         sodipodi:sides="5"
         id="path4665"
         style="color:#000000;display:inline;overflow:visible;visibility:visible;opacity:1;fill:#2a6e84;fill-opacity:1;fill-rule:nonzero;stroke:#00ffba;stroke-width:1.26301913;stroke-linecap:round;stroke-linejoin:bevel;stroke-miterlimit:4;stroke-dasharray:none;stroke-dashoffset:0;stroke-opacity:1;marker:none;enable-background:accumulate"
         sodipodi:type="star"
         transform="matrix(1.1611964,0,0,1.2146663,-17.343778,-35.094464)" />
    </g>
    <path
       sodipodi:type="spiral"
       style="fill:none;fill-rule:evenodd;stroke:#fc871f;stroke-width:5.665;stroke-linecap:round;stroke-linejoin:round;stroke-opacity:0.7352941;fill-opacity:0.60084033;stroke-miterlimit:4;stroke-dasharray:none"
       id="path4677"
       sodipodi:cx="105.30419"
       sodipodi:cy="41.223061"
       sodipodi:expansion="1"
       sodipodi:revolution="3"
       sodipodi:radius="39.47002"
       sodipodi:argument="-17.088003"
       sodipodi:t0="0"
       d="m 105.30419,41.223061 c -0.37521,1.943067 -2.80433,0.452859 -3.2295,-0.623632 -1.15219,-2.917224 1.82082,-5.522099 4.47677,-5.835381 4.75086,-0.560389 8.35973,3.887207 8.44125,8.329908 0.11964,6.519842 -5.97088,11.251741 -12.18305,11.04713 -8.279834,-0.272714 -14.165133,-8.059285 -13.653001,-16.036184 0.644466,-10.038115 10.1496,-17.089233 19.889321,-16.25888 11.79611,1.005669 20.01946,12.240921 18.86476,23.742461 -1.36078,13.554167 -14.33286,22.95352 -27.5956,21.470629 C 85.002779,65.347056 74.424995,50.633902 76.238634,35.610374 78.299405,18.539688 94.756487,6.7818161 111.54051,8.9279962 130.36965,11.335686 143.30879,29.538709 140.82876,48.08301 138.07546,68.670699 118.12502,82.79199 97.82061,79.977138" />
    <path
       style="fill:#ff00ff;fill-rule:evenodd;stroke:#000000;stroke-width:0.26458332px;stroke-linecap:butt;stroke-linejoin:miter;stroke-opacity:1"
       d="m 144.86008,92.00427 c 0.21606,-1.520491 1.11892,-0.02492 1.60362,-0.267268 0.11269,-0.05635 0.17818,-0.178179 0.26727,-0.267269 0.0891,-0.08909 0.19738,-0.162439 0.26727,-0.267269 0.1105,-0.165754 0.14774,-0.375171 0.26727,-0.53454 0.15119,-0.201587 0.40489,-0.318466 0.53454,-0.534541 0.14494,-0.241578 0.12232,-0.560229 0.26727,-0.801806 0.12964,-0.216075 0.38335,-0.332952 0.53454,-0.534541 0.11952,-0.159369 0.16477,-0.363717 0.26727,-0.534537 0.16526,-0.275442 0.35635,-0.534541 0.53453,-0.80181 0.35636,-0.53454 0.71272,-1.069078 1.06908,-1.603618 0.17818,-0.267269 0.37517,-0.522912 0.53454,-0.801807 0.19767,-0.345926 0.35636,-0.712718 0.53454,-1.069078 0.35636,-0.712718 0.67373,-1.446302 1.06908,-2.138156 0.31874,-0.557792 0.78177,-1.029007 1.06908,-1.603618 0.25198,-0.503968 0.28255,-1.099648 0.53454,-1.603616 0.14365,-0.287308 0.39088,-0.514503 0.53453,-0.801809 0.126,-0.251984 0.1563,-0.542862 0.26728,-0.801809 0.15694,-0.366207 0.37759,-0.702871 0.53453,-1.069078 0.22196,-0.517896 0.28256,-1.099648 0.53454,-1.603619 0.14366,-0.287305 0.36928,-0.526364 0.53454,-0.801806 0.1025,-0.170823 0.16478,-0.363718 0.26727,-0.534541 0.16527,-0.275441 0.39089,-0.5145 0.53454,-0.801809 0.12599,-0.251984 0.16264,-0.540231 0.26727,-0.801806 0.48446,-1.211162 0.0247,-0.03702 0.53454,-0.80181 0.1105,-0.165753 0.15676,-0.368786 0.26727,-0.53454 0.13977,-0.209661 0.35636,-0.356359 0.53454,-0.534538 0.0891,-0.08909 0.17818,-0.178181 0.26727,-0.267268 0.0891,-0.08909 0.14774,-0.227428 0.26727,-0.267272 0.16903,-0.05635 0.35982,0.03495 0.53453,0 0.27626,-0.05525 0.52556,-0.212019 0.80181,-0.267269 0.26208,-0.05242 0.54826,0.08452 0.80181,0 0.18899,-0.06299 0.34555,-0.204274 0.53454,-0.267269 0.14465,-0.04821 0.97803,0 1.06908,0 0.0891,0 0.18758,-0.03984 0.26727,0 0.11269,0.05635 0.17818,0.178179 0.26727,0.267269 0.15719,0.157194 0.94531,1.007195 1.06908,1.069078 0.25198,0.125992 0.54023,0.16264 0.80181,0.267269 0.18496,0.07399 0.35635,0.178181 0.53453,0.267272 0.17818,0.08909 0.37898,0.142822 0.53454,0.267268 0.29515,0.23612 0.53454,0.534538 0.80181,0.80181 0.53454,0.534537 1.06908,1.069078 1.60362,1.603615 0.62363,0.623629 1.29012,1.207157 1.87089,1.870888 0.58666,0.67047 1.02382,1.461735 1.60361,2.138156 0.24599,0.28698 0.55583,0.514829 0.80181,0.801809 0.2899,0.338209 0.51192,0.730866 0.80181,1.069078 0.24598,0.28698 0.53454,0.534538 0.80181,0.801809 0.17818,0.178179 0.33295,0.383347 0.53454,0.534538 0.15937,0.119525 0.39367,0.126407 0.53454,0.267269 0.14086,0.140864 0.15676,0.368787 0.26727,0.53454 0.13977,0.209664 0.39476,0.324874 0.53454,0.534538 0.40179,0.602694 0.2738,0.821417 0.53453,1.603618 0.063,0.188987 0.19329,0.349576 0.26727,0.534538 0.10464,0.261578 0.17818,0.53454 0.26727,0.801809 0.0891,0.267269 0.22096,0.523915 0.26727,0.801809 0.0439,0.263634 0,0.534538 0,0.801809 0,0.267269 0,0.534538 0,0.801807 0,0.623631 0.0774,1.252074 0,1.870887 -0.0456,0.36449 -0.17818,0.712719 -0.26727,1.069078 -0.17818,0.712719 -0.30222,1.441204 -0.53454,2.138156 -0.15171,0.455145 -0.38282,0.881206 -0.53453,1.33635 -0.11616,0.348475 -0.16636,0.715883 -0.26728,1.069078 -0.15479,0.541774 -0.35635,1.069078 -0.53453,1.603616 -0.0891,0.267269 -0.14128,0.549825 -0.26727,0.801809 -0.0564,0.112691 -0.19738,0.162438 -0.26727,0.267269 -0.1105,0.165753 -0.15677,0.368787 -0.26727,0.53454 -0.0864,0.129582 -1.20677,1.249958 -1.33635,1.336347 -1.35019,0.900128 -0.006,0.0021 -0.80181,0.267269 -0.18899,0.063 -0.34555,0.204274 -0.53454,0.267269 -0.15079,0.05026 -0.62618,0 -0.80181,0 -0.71271,0 -1.42543,0 -2.13815,0 -0.26727,0 -0.53818,-0.04394 -0.80181,0 -0.36233,0.06039 -0.71272,0.178181 -1.06908,0.267271 -1.14396,0.285992 -1.16129,0.308332 -2.40542,0.534542 -1.59566,0.29012 -1.45453,0.20444 -2.93997,0.53454 -0.35858,0.0797 -0.70888,0.19523 -1.06908,0.26727 -0.53139,0.10627 -1.07044,0.17032 -1.60362,0.26726 -1.2555,0.22828 -2.50412,0.4924 -3.74177,0.80181 -0.35636,0.0891 -0.70544,0.21532 -1.06907,0.26727 -0.52917,0.0756 -1.07947,-0.10483 -1.60362,0 -0.19535,0.0391 -0.34555,0.20428 -0.53454,0.26727 -0.16904,0.0564 -0.37517,-0.0797 -0.53454,0 -0.3064,0.1532 -0.37178,0.55766 -0.53454,0.80181 -0.32602,0.48903 -0.34075,0.0267 -0.53454,0.80181 -0.10804,0.43215 0.0732,0.89696 0,1.33635 -0.0463,0.27789 -0.22095,0.52391 -0.26727,0.80181 -0.0439,0.26363 0,0.53454 0,0.8018 0,0.26727 0,0.53454 0,0.80181 0,0.26727 -0.0378,0.53723 0,0.80181 0.0839,0.5873 0.34416,1.29973 0.53454,1.87089 0.0891,0.26727 0.17818,0.53454 0.26727,0.80181 0.0891,0.26727 0.14128,0.54982 0.26727,0.80181 0.14365,0.2873 0.39088,0.5145 0.53454,0.8018 0.12599,0.25199 0.14128,0.54983 0.26727,0.80181 0.14365,0.28731 0.36927,0.52637 0.53454,0.80181 0.23242,0.38737 0.63458,1.18554 0.80181,1.60362 0.20926,0.52315 0.28255,1.09965 0.53453,1.60362 0.14366,0.2873 0.39089,0.5145 0.53454,0.8018 0.0891,0.26727 0.17818,0.53454 0.26727,0.80181 0.0891,0.26727 0.14128,0.54983 0.26727,0.80181 0.14365,0.28731 0.39089,0.5145 0.53454,0.80181 0.12599,0.25198 0.14128,0.54982 0.26727,0.80181 0.14365,0.2873 0.39089,0.5145 0.53454,0.80181 0.25199,0.50397 0.32528,1.08046 0.53454,1.60361 0.78652,1.96631 -0.35188,-1.32291 0.53454,1.33635 0.0891,0.26727 0.16264,0.54023 0.26727,0.80181 0.21903,0.54757 0.61545,1.04455 0.80181,1.60362 0.0265,0.0794 0.0274,1.28149 0,1.33634 -0.0564,0.1127 -0.17818,0.17818 -0.26727,0.26727 -0.17818,0.17818 -0.31847,0.4049 -0.53454,0.53454 -0.24158,0.14495 -0.54983,0.14128 -0.80181,0.26727 -0.28731,0.14366 -0.50656,0.40801 -0.80181,0.53454 -0.33763,0.1447 -0.71588,0.16636 -1.06908,0.26727 -0.27088,0.0774 -0.53454,0.17818 -0.8018,0.26727 -0.35636,0.0891 -0.71589,0.16636 -1.06908,0.26727 -1.85835,0.53096 0.40981,-0.0534 -1.87089,0.80181 -0.34394,0.12898 -0.71272,0.17818 -1.06908,0.26727 -0.71272,0.17818 -1.42544,0.35636 -2.13815,0.53454 -0.35636,0.0891 -0.71589,0.16635 -1.06908,0.26727 -0.54178,0.15479 -1.04783,0.4419 -1.60362,0.53453 -0.26363,0.0439 -0.53818,-0.0439 -0.80181,0 -0.27789,0.0463 -0.52849,0.19895 -0.80181,0.26728 -0.0966,0.0241 -1.25622,0.0267 -1.33635,0 -1.93594,-0.64532 0.42138,0.077 -0.8018,-0.53454 -0.25199,-0.126 -0.54983,-0.14128 -0.80181,-0.26727 -0.32072,-0.16036 -0.48109,-0.64145 -0.80181,-0.80181 -0.0797,-0.0398 -0.18759,0.0398 -0.26727,0 -0.32072,-0.16036 -0.48109,-0.64145 -0.80181,-0.80181 -0.0797,-0.0398 -0.18758,0.0398 -0.26727,0 -0.13012,-0.0651 -1.00127,-1.01483 -1.06908,-1.06908 -0.25083,-0.20066 -0.57467,-0.3074 -0.80181,-0.53454 -0.22713,-0.22713 -0.3289,-0.55504 -0.53453,-0.80181 -0.24198,-0.29037 -0.55984,-0.51144 -0.80181,-0.80181 -0.69458,-0.83349 -0.29151,-0.71429 -1.06908,-1.33634 -0.25083,-0.20067 -0.54484,-0.34181 -0.80181,-0.53454 -0.22382,-0.16787 -0.5831,-0.69245 -0.80181,-0.80181 -0.0797,-0.0398 -0.26727,0.0891 -0.26727,0 0,-0.0891 0.35636,0 0.26727,0 -0.17818,0 -0.35636,0 -0.53454,0 -0.53454,0 -1.06907,0 -1.60361,0"
       id="path4679"
       inkscape:connector-curvature="0" />
    <path
       style="fill:#ffcc00;fill-rule:evenodd;stroke:#000000;stroke-width:0.26458332px;stroke-linecap:butt;stroke-linejoin:miter;stroke-opacity:1"
       d="m 73.766388,130.22381 c 25.657876,11.49259 94.747042,28.86511 110.248682,16.30344 15.50163,-12.56167 -67.48556,-56.928405 -45.83672,-46.23762 21.64882,10.69078 37.95227,11.22532 32.33961,29.93418 -5.61266,18.70887 -10.69079,16.30344 -34.47777,18.17433 l -23.78699,1.87089 v 0"
       id="bezier"
       inkscape:connector-curvature="0"
       sodipodi:nodetypes="csssscc" />
    <g
       sodipodi:type="inkscape:box3d"
       id="g4702"
       style="color:#000000;display:inline;overflow:visible;visibility:visible;opacity:1;fill:#ff00ff;fill-opacity:0.60084031;fill-rule:nonzero;stroke:#fc871f;stroke-width:21.41102409;stroke-linecap:round;stroke-linejoin:round;stroke-miterlimit:4;stroke-dasharray:none;stroke-dashoffset:0;stroke-opacity:0.73529412;marker:none;enable-background:accumulate"
       inkscape:perspectiveID="#perspective4700"
       inkscape:corner0="-0.08209847 : 0.15876407 : 0 : 1"
       inkscape:corner7="-0.3203082 : 0.13204329 : 0.25 : 1">
      <path
         sodipodi:type="inkscape:box3dside"
         id="path4704"
         style="fill:#353564;fill-rule:evenodd;stroke:none;stroke-width:1px;stroke-linecap:butt;stroke-linejoin:round;stroke-opacity:1"
         inkscape:box3dsidetype="6"
         d="m 114.39136,29.463198 v 29.110725 l 20.4659,19.2495 V 54.944114 Z"
         points="114.39136,58.573923 134.85726,77.823423 134.85726,54.944114 114.39136,29.463198 " />
      <path
         sodipodi:type="inkscape:box3dside"
         id="path4714"
         style="fill:#e9e9ff;fill-rule:evenodd;stroke:none;stroke-width:1px;stroke-linecap:butt;stroke-linejoin:round;stroke-opacity:1"
         inkscape:box3dsidetype="11"
         d="M 134.85726,54.944114 169.41099,30.972812 V 59.714358 L 134.85726,77.823423 Z"
         points="169.41099,30.972812 169.41099,59.714358 134.85726,77.823423 134.85726,54.944114 " />
      <path
         sodipodi:type="inkscape:box3dside"
         id="path4706"
         style="fill:#4d4d9f;fill-rule:evenodd;stroke:none;stroke-width:1px;stroke-linecap:butt;stroke-linejoin:round;stroke-opacity:1"
         inkscape:box3dsidetype="5"
         d="m 114.39136,29.463198 40.09042,-41.718505 14.92921,43.228119 -34.55373,23.971302 z"
         points="154.48178,-12.255307 169.41099,30.972812 134.85726,54.944114 114.39136,29.463198 " />
      <path
         sodipodi:type="inkscape:box3dside"
         id="path4712"
         style="fill:#afafde;fill-rule:evenodd;stroke:none;stroke-width:1px;stroke-linecap:butt;stroke-linejoin:round;stroke-opacity:1"
         inkscape:box3dsidetype="13"
         d="m 114.39136,58.573923 40.09042,-31.516148 14.92921,32.656583 -34.55373,18.109065 z"
         points="154.48178,27.057775 169.41099,59.714358 134.85726,77.823423 114.39136,58.573923 " />
      <path
         sodipodi:type="inkscape:box3dside"
         id="path4710"
         style="fill:#d7d7ff;fill-rule:evenodd;stroke:none;stroke-width:1px;stroke-linecap:butt;stroke-linejoin:round;stroke-opacity:1"
         inkscape:box3dsidetype="14"
         d="m 154.48178,-12.255307 v 39.313082 l 14.92921,32.656583 V 30.972812 Z"
         points="154.48178,27.057775 169.41099,59.714358 169.41099,30.972812 154.48178,-12.255307 " />
      <path
         sodipodi:type="inkscape:box3dside"
         id="path4708"
         style="fill:#8686bf;fill-rule:evenodd;stroke:none;stroke-width:1px;stroke-linecap:butt;stroke-linejoin:round;stroke-opacity:1"
         inkscape:box3dsidetype="3"
         d="m 114.39136,29.463198 40.09042,-41.718505 v 39.313082 l -40.09042,31.516148 z"
         points="154.48178,-12.255307 154.48178,27.057775 114.39136,58.573923 114.39136,29.463198 " />
    </g>
    <text
       xml:space="preserve"
       style="font-style:normal;font-variant:normal;font-weight:normal;font-stretch:normal;font-size:10.58333302px;line-height:125%;font-family:'Digital Play Hollow St';-inkscape-font-specification:'Digital Play Hollow St';letter-spacing:0px;word-spacing:0px;fill:#008080;fill-opacity:1;stroke:#fc1ff5;stroke-width:0.765;stroke-linecap:butt;stroke-linejoin:miter;stroke-opacity:0.7352941;stroke-miterlimit:4;stroke-dasharray:none"
       x="15.597447"
       y="137.35896"
       id="text4718"><tspan
         sodipodi:role="line"
         id="tspan4716"
         x="15.597447"
         y="137.35896"
         style="font-style:normal;font-variant:normal;font-weight:normal;font-stretch:normal;font-family:'Bitstream Vera Sans';-inkscape-font-specification:'Bitstream Vera Sans';fill:#008080;stroke-width:0.765;stroke:#fc1ff5;stroke-opacity:0.7352941;stroke-miterlimit:4;stroke-dasharray:none">Mike Litoris</tspan><tspan
         sodipodi:role="line"
         x="15.597447"
         y="153.12012"
         style="font-style:normal;font-variant:normal;font-weight:normal;font-stretch:normal;font-family:'Bitstream Vera Sans';-inkscape-font-specification:'Bitstream Vera Sans';fill:#008080;stroke-width:0.765;stroke:#fc1ff5;stroke-opacity:0.7352941;stroke-miterlimit:4;stroke-dasharray:none"
         id="tspan4771">second line</tspan></text>
    <g
       aria-label="Mike Litoris"
       style="font-style:normal;font-variant:normal;font-weight:normal;font-stretch:normal;font-size:23.04732704px;line-height:125%;font-family:'Digital Play Hollow St';-inkscape-font-specification:'Digital Play Hollow St';letter-spacing:0px;word-spacing:0px;fill:#d45500;fill-opacity:1;stroke:none;stroke-width:0.2;stroke-linecap:butt;stroke-linejoin:miter;stroke-miterlimit:4;stroke-dasharray:none;stroke-opacity:1"
       id="text4722"
       transform="translate(4.5170333,-9.8514686)">
      <path
         d="M 6.7042622,50.791068 Q 6.017794,51.432522 6.0065404,51.432522 v 9.115398 q 0.6302003,0.708975 0.6302003,0.720229 h 0.7314826 q 1.4517115,-1.417951 1.4517115,-1.406698 v -7.55115 L 7.3794769,50.791068 Z m 15.6199658,1.462965 v 7.539897 l 1.38419,1.474219 h 0.742736 l 0.686468,-0.652708 V 51.500043 Q 24.518676,50.802321 24.518676,50.791068 H 23.832207 Z M 10.75555,52.580387 q -0.495157,0.247578 -0.607693,0.247578 -0.05627,0 -0.3713681,0.990315 l 3.0047051,6.965965 q 0,0.07878 0.91154,0.427636 0.07878,0 0.618947,-0.28134 0.112535,-0.135043 0.776497,-1.980629 l -2.363252,-5.536761 q -0.07878,-0.09003 -1.969376,-0.832764 z m 7.731208,0.765243 q -0.101282,0.101282 -2.442026,5.626789 0,0.01125 0.697721,1.766811 0,0.247579 0.641454,0.461397 l 0.900287,-0.3151 q 0.213818,-0.28134 3.151001,-7.337333 l -1.035329,-0.967807 z m -2.824648,7.607418 q -1.429204,1.38419 -1.429204,1.395444 v 0.686468 q 0.641454,0.697722 0.641454,0.708976 h 1.485472 q 0.697722,-0.641454 0.708975,-0.641454 V 62.40476 Z M 6.0065404,62.87741 q 0,0.877779 -0.056268,3.634906 0.056268,4.186331 0.056268,5.457985 0.6302003,0.697722 0.6302003,0.708975 h 0.7314826 q 1.4517115,-1.41795 1.4517115,-1.406697 v -1.575501 q 0,-1.530486 -0.045014,-2.228208 0.045014,-0.708976 0.045014,-2.228209 V 63.732682 L 7.3794769,62.213449 H 6.7042622 Z M 23.832207,62.213449 q -1.507979,1.451712 -1.507979,1.462965 v 1.564247 q 0,1.519233 0.04501,2.228209 -0.04501,0.697722 -0.04501,2.228208 v 1.50798 l 1.38419,1.474218 h 0.742736 l 0.686468,-0.663961 q 0,-1.316668 0.05627,-5.469239 -0.05627,-2.790887 -0.05627,-3.634905 -0.618946,-0.686468 -0.618946,-0.697722 z M 6.5692193,50.45346 H 7.401984 q 0.1462965,0.02251 1.7555581,1.721798 v 7.686193 q 0,0.135043 -1.6430223,1.744305 H 6.6367407 q -0.1462965,0 -0.9678076,-0.922793 v -9.250441 q 0,-0.135043 0.9002862,-0.979062 z m 17.1279447,0 h 0.821512 q 0.135043,0 0.956554,0.91154 v 9.250441 q 0,0.146297 -0.900286,0.990315 h -0.866526 q -0.146296,0 -1.721797,-1.676783 v -7.697447 q 0.02251,-0.146297 1.710543,-1.778066 z m -12.952867,1.766812 q 2.104419,0.821511 2.261969,1.001569 l 2.442026,5.716817 q -0.731482,2.025644 -0.922793,2.261969 -0.663961,0.348861 -0.889033,0.348861 -1.192879,-0.450143 -1.192879,-0.697722 L 9.427628,53.829534 q 0.4051288,-1.339176 0.720229,-1.339176 0.03376,0 0.59644,-0.270086 z m 9.644316,0 q 1.024075,0.360115 1.024075,0.708976 0.303847,0.821511 0.303847,0.934046 -2.92593,6.909697 -3.218523,7.303572 l -1.114105,0.393876 q -0.979061,-0.337608 -0.979061,-0.75399 -0.697722,-1.755558 -0.697722,-1.901855 2.397012,-5.649296 2.588323,-5.840607 z m -4.715249,8.260126 1.733051,1.789319 v 0.832765 q 0,0.135043 -0.91154,0.979061 H 14.87436 q -0.135043,0 -0.979062,-0.91154 v -0.844018 q 0.02251,-0.146297 1.778066,-1.845587 z M 6.5692193,61.875842 H 7.401984 q 0.1462965,0.01125 1.7555581,1.721797 v 1.643022 q 0,1.530487 -0.045014,2.228209 0.045014,0.686468 0.045014,2.228208 v 1.575501 q 0,0.135043 -1.6430223,1.744305 H 6.6367407 q -0.1462965,0 -0.9678076,-0.922794 0,-1.395443 -0.056268,-5.593028 0.056268,-2.757126 0.056268,-3.769948 z m 17.1279447,0 h 0.821512 q 0.135043,0 0.956554,0.900286 0,0.967808 0.05627,3.769948 -0.05627,4.152571 -0.05627,5.615536 l -0.889033,0.855272 h -0.877779 q -0.146296,0 -1.721797,-1.676783 v -1.643023 q 0,-1.54174 0.04501,-2.228208 -0.04501,-0.697722 -0.04501,-2.228209 v -1.586754 q 0.02251,-0.146296 1.710543,-1.778065 z"
         style="fill:#d45500;stroke-width:0.2;stroke-miterlimit:4;stroke-dasharray:none"
         id="path4724"
         inkscape:connector-curvature="0" />
      <path
         d="m 28.851303,50.791068 q -0.686469,0.641454 -0.708976,0.641454 v 9.115398 q 0.641454,0.708975 0.641454,0.720229 h 0.686468 q 1.496726,-1.474219 1.496726,-1.462966 v -7.494882 l -1.440458,-1.519233 z m 0.799004,11.422381 q -1.50798,1.451712 -1.50798,1.462965 v 7.472376 q 1.451712,1.530486 1.440458,1.530486 h 0.686468 l 0.697722,-0.652707 v -9.115398 q -0.6302,-0.686468 -0.6302,-0.697722 z M 28.71626,50.45346 h 0.832764 q 0.146297,0.02251 1.755559,1.721798 v 7.629925 q 0,0.135043 -1.699291,1.800573 h -0.821511 q -0.146296,0 -0.979061,-0.922793 v -9.250441 q 0,-0.135043 0.91154,-0.979062 z m 0.799004,11.422382 h 0.821511 q 0.135043,0 0.967808,0.900286 v 9.250441 q 0,0.146296 -0.91154,0.990315 h -0.810258 q -0.135043,0 -1.778065,-1.733051 v -7.629926 q 0.02251,-0.146296 1.710544,-1.778065 z"
         style="fill:#d45500;stroke-width:0.2;stroke-miterlimit:4;stroke-dasharray:none"
         id="path4726"
         inkscape:connector-curvature="0" />
      <path
         d="m 48.342499,50.779814 q -1.778066,0.517665 -1.913109,0.517665 -2.982198,5.109124 -3.533623,6.144453 l 0.551425,2.036898 v -0.101282 q 0,-0.02251 1.924362,-0.528919 3.072227,-5.480492 3.499863,-6.076932 -0.483904,-1.879347 -0.528918,-1.991883 z m -13.684351,0.01125 q -0.686468,0.641454 -0.708975,0.641454 v 8.46269 l 0.697722,0.75399 h 0.6302 q 1.496726,-1.462965 1.496726,-1.451712 v -6.887189 l -1.440458,-1.519233 z m 7.010979,9.486766 q -2.397012,0.05627 -4.658981,0.05627 l -1.429204,1.406697 q 1.372936,1.440458 1.361683,1.440458 h 9.317962 L 47.712298,61.785811 46.316855,60.3341 q -2.228209,0 -4.647728,-0.05627 z m -7.719954,3.263537 q -0.04501,2.543309 -0.04501,2.599577 0.04501,5.06411 0.04501,5.829353 l 0.641454,0.708975 h 0.675214 l 1.50798,-1.462965 v -2.430773 q 0,-0.641453 -0.04501,-1.012822 0.04501,-0.371368 0.04501,-1.012822 v -2.419519 q -1.38419,-1.462965 -1.395444,-1.474218 h -0.720229 z m 12.547739,0.75399 q -0.03376,1.012822 -0.03376,1.451711 0,1.699291 0.03376,5.401718 1.462965,1.530486 1.451711,1.530486 h 0.686469 l 0.697722,-0.652707 V 63.575128 Q 48.702613,62.88866 48.702613,62.866153 h -0.742736 z m 2.059405,-13.931929 q 0.15755,0.438889 0.675214,2.475787 -0.495157,0.708975 -3.634905,6.302003 -2.194448,0.573933 -2.487041,0.573933 V 59.52384 l -0.573932,-2.126926 q 0.618946,-1.147865 3.702427,-6.437047 0.281339,0 2.318237,-0.596439 z m -14.033212,0.09003 h 0.832765 q 0.146297,0.02251 1.755558,1.721798 v 7.022232 q 0,0.135043 -1.69929,1.789319 h -0.765243 q -0.146297,0 -1.035329,-0.967808 V 51.43252 q 0,-0.135043 0.911539,-0.979062 z m 7.146022,9.486766 q 2.430773,0.05627 4.794024,0.05627 l 1.721798,1.789319 -1.789319,1.733051 h -9.453005 q -0.135043,0 -1.834334,-1.789319 l 1.766812,-1.733051 q 2.397012,0 4.794024,-0.05627 z m -7.146022,2.588323 h 0.889033 q 0.146296,0.02251 1.69929,1.676783 v 2.554562 q 0,0.663962 -0.04501,1.012822 0.04501,0.348861 0.04501,1.012822 v 2.430773 q 0,0.135043 -1.69929,1.800573 h -0.821511 q -0.146297,0 -0.979061,-0.922794 0,-0.889032 -0.04502,-5.953142 0,-0.05627 0.04502,-2.757127 z m 13.301729,0 h 0.877779 q 0.12379,0 0.967808,0.91154 v 8.58648 q 0,0.146296 -0.900286,0.990315 h -0.821512 q -0.135042,0 -1.789318,-1.733051 -0.03376,-3.83747 -0.03376,-5.536761 0,-0.450143 0.04501,-1.598008 z"
         style="fill:#d45500;stroke-width:0.2;stroke-miterlimit:4;stroke-dasharray:none"
         id="path4728"
         inkscape:connector-curvature="0" />
      <path
         d="m 54.576981,50.791068 q -0.675215,0.641454 -0.697722,0.641454 v 0.742736 q 1.395444,1.485472 1.38419,1.485472 h 10.927224 l 1.462965,-1.417951 v -0.742736 q -0.641454,-0.697722 -0.641454,-0.708975 z m -2.250716,3.207269 q -0.05627,1.024076 -0.05627,1.541741 v 2.892169 q 0,0.528918 0.05627,1.552994 l 0.697722,0.663961 h 0.573933 l 1.507979,-1.474219 q 0.04501,-1.024075 0.04501,-1.54174 v -1.327922 q 0,-0.528918 -0.04501,-1.54174 L 53.63168,53.334376 h -0.607693 z m 7.652433,6.279497 q -2.385758,0.05627 -4.647727,0.05627 -1.38419,1.339175 -1.451712,1.339175 1.451712,1.50798 1.440458,1.50798 h 9.261694 q 1.440458,-1.38419 1.50798,-1.38419 l -1.406697,-1.462965 q -2.250716,0 -4.703996,-0.05627 z m -7.652433,3.207269 q -0.05627,2.149434 -0.05627,3.027213 0,0.979061 0.05627,2.959691 l 0.697722,0.675214 h 0.607693 l 1.462966,-1.429204 q 0,-0.607693 0.05627,-2.216955 -0.05627,-1.744304 -0.05627,-2.160687 -1.395444,-1.462965 -1.395444,-1.474218 h -0.720229 z m 3.060974,6.335765 q -1.50798,1.451711 -1.50798,1.462965 v 0.686468 q 0.6302,0.697722 0.6302,0.708975 h 12.435204 l 0.708975,-0.652707 V 71.283833 Q 66.258195,69.820868 66.246941,69.820868 Z M 54.441938,50.45346 h 12.570246 q 0.135043,0 0.979062,0.91154 v 0.877779 q 0,0.146297 -1.66553,1.755558 H 55.263449 q -0.135043,0 -1.721797,-1.688036 v -0.877779 q 0,-0.135043 0.900286,-0.979062 z m -1.552994,2.543309 h 0.889033 l 1.654276,1.609262 q 0.05627,1.170372 0.05627,1.69929 v 1.327922 q 0,0.528918 -0.05627,1.688037 l -1.69929,1.665529 h -0.844019 l -0.900286,-0.855272 q -0.05627,-1.159118 -0.05627,-1.69929 v -2.892169 q 0,-0.528919 0.05627,-1.688037 z m 7.089754,6.943457 q 2.464534,0.05627 4.850292,0.05627 l 1.598008,1.66553 q 0,0.202564 -1.69929,1.85684 h -9.407991 q -0.135043,0 -1.789319,-1.733051 0.02251,-0.213818 1.66553,-1.789319 2.397012,0 4.78277,-0.05627 z m -7.134768,2.588323 h 0.877779 q 0.146297,0.02251 1.710544,1.676783 0,0.540172 0.05627,2.306984 -0.05627,1.609261 -0.05627,2.351997 l -1.654276,1.620516 h -0.889033 l -0.900286,-0.855272 q -0.05627,-2.13818 -0.05627,-3.117241 0,-0.877779 0.05627,-3.184763 z m 2.408266,6.954711 h 11.017252 q 0.146297,0.02251 1.721798,1.66553 v 0.877779 q 0,0.146296 -0.91154,0.990315 H 54.509459 q -0.135042,0 -0.967807,-0.922794 v -0.832764 q 0.01125,-0.146297 1.710544,-1.778066 z"
         style="fill:#d45500;stroke-width:0.2;stroke-miterlimit:4;stroke-dasharray:none"
         id="path4730"
         inkscape:connector-curvature="0" />
      <path
         d="m 77.162911,51.48879 v 9.05913 q 0.641454,0.708975 0.641454,0.720229 h 0.686469 q 1.496725,-1.474219 1.496725,-1.462966 v -7.438614 l -1.451711,-1.530487 h -0.663961 z m 0.708976,10.724659 q -0.686468,0.6302 -0.708976,0.6302 v 6.583343 q 0.641454,0.708976 0.641454,0.720229 h 0.686469 q 1.496725,-1.474218 1.496725,-1.462965 v -4.951574 l -1.440458,-1.519233 z m 2.351997,7.607419 q -1.496725,1.451711 -1.496725,1.462965 v 1.395443 h 11.557424 l 0.708975,-0.652707 v -0.686468 q -1.451711,-1.519233 -1.462965,-1.519233 z m -2.48704,-19.322393 h 0.844018 q 0.146297,0.04501 1.744305,1.733051 v 7.573657 q 0,0.135043 -1.699291,1.800573 h -0.821511 q -0.146296,0 -0.979061,-0.922793 V 51.48879 q 0,-0.146297 0.91154,-0.990315 z m 0,11.377367 h 0.832765 q 0.146296,0.01125 1.755558,1.721797 v 5.086617 q 0,0.135043 -1.699291,1.800573 h -0.821511 q -0.146296,0 -0.979061,-0.922794 v -6.718386 q 0,-0.123789 0.91154,-0.967807 z m 2.351998,7.607418 h 9.475512 q 0.146296,0.02251 1.766812,1.721798 v 0.821511 q 0,0.146296 -0.91154,0.990315 H 78.389551 v -1.755558 q 0.02251,-0.146297 1.699291,-1.778066 z"
         style="fill:#d45500;stroke-width:0.2;stroke-miterlimit:4;stroke-dasharray:none"
         id="path4732"
         inkscape:connector-curvature="0" />
      <path
         d="m 94.61721,50.791068 q -0.686468,0.641454 -0.708975,0.641454 v 9.115398 q 0.641453,0.708975 0.641453,0.720229 h 0.686469 q 1.496726,-1.474219 1.496726,-1.462966 v -7.494882 l -1.440458,-1.519233 z m 0.799004,11.422381 q -1.507979,1.451712 -1.507979,1.462965 v 7.472376 q 1.451711,1.530486 1.440457,1.530486 h 0.686469 l 0.697722,-0.652707 V 62.911171 Q 96.102682,62.224703 96.102682,62.213449 Z M 94.482167,50.45346 h 0.832765 q 0.146296,0.02251 1.755558,1.721798 v 7.629925 q 0,0.135043 -1.69929,1.800573 h -0.821512 q -0.146296,0 -0.979061,-0.922793 v -9.250441 q 0,-0.135043 0.91154,-0.979062 z m 0.799004,11.422382 h 0.821511 q 0.135043,0 0.967808,0.900286 v 9.250441 q 0,0.146296 -0.91154,0.990315 h -0.810258 q -0.135042,0 -1.778065,-1.733051 v -7.629926 q 0.02251,-0.146296 1.710544,-1.778065 z"
         style="fill:#d45500;stroke-width:0.2;stroke-miterlimit:4;stroke-dasharray:none"
         id="path4734"
         inkscape:connector-curvature="0" />
      <path
         d="m 100.37904,50.791068 q -0.686465,0.641454 -0.708972,0.641454 v 0.742736 l 1.395442,1.485472 h 6.07693 q 0.1463,0 0.19131,0.02251 0.0563,-0.02251 0.20257,-0.02251 h 6.00941 l 1.46296,-1.417951 v -0.742736 q -0.64145,-0.697722 -0.64145,-0.708975 z m 7.03349,4.163823 q -1.46297,1.417951 -1.46297,1.429205 v 0.6302 q 0,1.361683 -0.045,2.025644 0.045,0.663961 0.045,2.025644 v 0.652708 q 1.39545,1.462965 1.38419,1.462965 h 0.68647 l 0.70898,-0.663961 q 0,-1.417951 0.045,-3.477356 -0.045,-2.104419 -0.045,-3.432341 -0.58519,-0.6302 -0.58519,-0.652708 z m -1.46297,10.150728 q 0,1.496725 -0.045,3.432341 0.045,2.048151 0.045,3.488609 l 0.58519,0.652707 h 0.73148 q 1.46297,-1.41795 1.46297,-1.406697 v -0.663961 q 0,-1.361683 0.045,-2.025644 -0.045,-0.675215 -0.045,-2.036898 v -0.6302 q -1.39545,-1.474219 -1.4067,-1.474219 h -0.67521 z M 100.244,50.45346 h 14.12324 q 0.1463,0 0.97906,0.91154 v 0.877779 q 0,0.146297 -1.66553,1.755558 h -6.14445 q -0.0675,0 -0.20257,0.05627 -0.12379,-0.05627 -0.19131,-0.05627 h -6.07693 q -0.1463,0 -1.73305,-1.688036 v -0.877779 q 0,-0.135043 0.91154,-0.979062 z m 7.02223,4.163824 h 0.87778 q 0.13504,0 0.9228,0.866526 0,1.451711 0.045,3.55613 -0.045,2.059405 -0.045,3.623652 l -0.91154,0.855272 h -0.82152 q -0.13504,0 -1.72179,-1.665529 v -0.787751 q 0,-1.350429 -0.045,-2.025644 0.045,-0.675214 0.045,-2.025644 v -0.675214 q 0.0338,-0.146297 1.65427,-1.721798 z m -0.74273,9.486766 h 0.83276 q 0.1463,0.01125 1.71055,1.676783 v 0.765243 q 0,1.35043 0.045,2.036898 -0.045,0.675215 -0.045,2.025644 v 0.663961 q 0,0.135043 -1.65428,1.744305 h -0.87778 q -0.13504,0 -0.92279,-0.866526 0,-1.564247 -0.045,-3.612398 0.045,-1.946869 0.045,-3.578638 z"
         style="fill:#d45500;stroke-width:0.2;stroke-miterlimit:4;stroke-dasharray:none"
         id="path4736"
         inkscape:connector-curvature="0" />
      <path
         d="m 120.19659,50.791068 q -0.64145,0.607693 -0.64145,0.596439 v 0.787751 q 1.39544,1.485472 1.38419,1.485472 h 9.31796 l 1.50798,-1.474219 v -0.686468 q -0.6302,-0.697722 -0.6302,-0.708975 z m -1.54174,2.543308 q -0.68646,0.630201 -0.70897,0.630201 v 5.930635 q 0.64145,0.697722 0.64145,0.708975 h 0.73148 q 1.45172,-1.41795 1.45172,-1.406697 v -4.400149 l -1.39545,-1.462965 z m 13.34675,0 q -1.49673,1.451712 -1.49673,1.462965 v 4.287613 q 1.45171,1.519233 1.42921,1.519233 h 0.68646 l 0.70898,-0.652707 v -5.919382 q -0.64146,-0.686468 -0.64146,-0.697722 z m -13.30173,9.486766 q -0.74274,0.686469 -0.75399,0.686469 v 5.863113 q 0.68647,0.765244 0.68647,0.776497 h 0.64145 q 1.49673,-1.474218 1.49673,-1.462965 v -4.343881 l -1.44046,-1.519233 z m 13.30173,0 q -1.49673,1.451712 -1.49673,1.462965 v 4.332628 q 1.45171,1.530486 1.42921,1.530486 h 0.68646 q 0.69773,-0.652707 0.70898,-0.652707 v -5.964396 q -0.64146,-0.697722 -0.64146,-0.708976 z m -10.99475,6.999726 q -1.45171,1.395443 -1.45171,1.406697 v 0.742736 q 0.6302,0.697722 0.6302,0.708975 h 10.88221 l 0.69772,-0.652707 v -0.686468 q -1.44046,-1.519233 -1.45171,-1.519233 z M 120.0728,50.45346 h 11.06227 q 0.13504,0 0.96781,0.91154 v 0.821511 q 0,0.146297 -1.69929,1.811826 h -9.46426 q -0.13504,0 -1.7218,-1.688036 v -0.922794 q 0,-0.146296 0.85527,-0.934047 z m -1.55299,2.543309 h 0.87778 q 0.1463,0.02251 1.71054,1.665529 v 4.535192 q 0,0.135043 -1.65427,1.744305 h -0.86653 q -0.14629,0 -0.97906,-0.922794 v -6.054424 q 0,-0.12379 0.91154,-0.967808 z m 13.34674,0 h 0.82151 q 0.13505,0 0.97907,0.900286 v 6.054425 q 0,0.146296 -0.91154,0.990315 h -0.82151 q -0.12379,0 -1.76682,-1.721798 v -4.445163 q 0.0113,-0.146296 1.69929,-1.778065 z m -13.30173,9.486766 h 0.78776 q 0.14629,0.01125 1.75555,1.721797 v 4.478924 q 0,0.135043 -1.69929,1.800573 h -0.77649 q -0.13505,0 -1.02408,-0.979062 v -5.998156 q 0,-0.135043 0.95655,-1.024076 z m 13.30173,0 h 0.82151 q 0.13505,0 0.97907,0.91154 v 6.099439 q 0,0.146296 -0.91154,0.990315 h -0.82151 q -0.12379,0 -1.76682,-1.733051 V 64.2616 q 0.0113,-0.146296 1.69929,-1.778065 z m -10.99474,6.999725 h 9.47551 q 0.1463,0.02251 1.75556,1.721798 v 0.821511 q 0,0.146296 -0.90029,0.990315 h -11.01725 q -0.13504,0 -0.96781,-0.922794 v -0.889032 q 0.0113,-0.146297 1.65428,-1.721798 z"
         style="fill:#d45500;stroke-width:0.2;stroke-miterlimit:4;stroke-dasharray:none"
         id="path4738"
         inkscape:connector-curvature="0" />
      <path
         d="m 138.51741,50.689786 q -0.67522,0.641453 -0.68647,0.641453 v 0.697722 q 1.44046,1.519233 1.42921,1.519233 h 9.31796 q 1.46296,-1.406697 1.46296,-1.395443 v -0.75399 l -0.64145,-0.708975 z m -1.54174,2.543308 q -0.69772,0.6302 -0.70898,0.6302 v 5.986904 q 0.64146,0.686468 0.64146,0.697722 h 0.68647 q 1.49672,-1.462966 1.49672,-1.451712 v -4.343881 l -1.44046,-1.519233 z m 13.34674,0 q -1.49672,1.451712 -1.49672,1.462965 v 4.737756 q 1.39544,1.462965 1.38419,1.462965 h 0.73148 q 0.69772,-0.6302 0.70897,-0.6302 v -6.335764 q -0.64145,-0.686468 -0.64145,-0.697722 z m -11.05101,7.303572 q -0.73148,0.686468 -0.74274,0.686468 v 0.652708 q 1.45171,1.519233 1.42921,1.519233 h 0.91154 q 1.05783,0 1.91311,0.04501 l 0.799,-0.04501 q 0.4614,0 2.01439,0.04501 2.22821,-0.04501 3.76995,-0.04501 0.045,0 0.67521,-0.708976 v -0.6302 l -1.45171,-1.519233 z m -2.352,2.228208 q -0.6302,0.585186 -0.65271,0.585186 v 8.518959 q 0.64146,0.686468 0.64146,0.697722 h 0.68647 l 1.49672,-1.451712 v -6.819668 l -1.45171,-1.530487 z m 10.49959,1.474219 q -0.49516,0.506411 -0.50641,0.506411 v 2.093165 q 1.80057,1.879348 1.95812,1.879348 0,0.303847 1.13661,0.303847 h 1.0916 q 0.45014,-0.393876 0.45014,-0.382622 v -1.046583 q -2.41952,-2.532055 -3.16225,-3.308552 -0.28134,0 -0.96781,-0.04501 z m 2.10442,5.525507 q -0.68647,0.641454 -0.69772,0.641454 v 1.507979 q 0.6302,0.697722 0.6302,0.708975 h 1.48547 q 0.69772,-0.641454 0.70897,-0.641454 V 70.473575 Q 151.00888,69.775853 151.00888,69.7646 Z M 138.39362,50.352178 h 11.006 q 0.1463,0 0.97906,0.91154 v 0.889033 q 0,0.135043 -1.65428,1.733051 h -9.46425 q -0.13505,0 -1.76682,-1.721798 v -0.832765 q 0,-0.135042 0.90029,-0.979061 z m -1.55299,2.543309 h 0.83276 q 0.1463,0.02251 1.75556,1.721797 v 4.478924 q 0,0.135043 -1.69929,1.789319 h -0.82151 q -0.1463,0 -0.97906,-0.91154 v -6.110693 q 0,-0.135042 0.91154,-0.967807 z m 13.34674,0 h 0.82151 q 0.13504,0 0.97906,0.91154 v 6.459553 q 0,0.135043 -0.91154,0.967808 h -0.86652 q -0.13505,0 -1.7218,-1.66553 v -4.895306 q 0.0112,-0.146296 1.69929,-1.778065 z m -11.03976,7.303572 h 9.47551 q 0.13505,0.02251 1.75556,1.721797 v 0.889033 q -0.81026,0.922793 -1.01282,0.922793 -1.54174,0 -3.76995,0.04501 -1.55299,-0.04501 -2.00314,-0.04501 l -0.81025,0.04501 q -0.85528,-0.04501 -1.91311,-0.04501 h -0.91154 q -0.12379,0 -1.76681,-1.721797 v -0.787751 q 0,-0.135043 0.95655,-1.024075 z m -2.36325,2.228208 h 0.90028 q 0.1463,0.03376 1.74431,1.733051 v 6.954711 q 0,0.135043 -1.69929,1.789319 h -0.82151 q -0.1463,0 -0.97906,-0.900286 V 63.35006 q 0,-0.123789 0.85527,-0.922793 z m 10.49959,1.474219 q 0.82151,0.04501 1.23789,0.04501 0.85527,0.877779 3.36482,3.511116 v 1.181626 q 0,0.135043 -0.66396,0.720229 h -1.21539 q -1.47422,0 -1.47422,-0.303847 0,-0.03376 -1.95812,-2.081912 v -2.565815 q 0.20257,0 0.70898,-0.506411 z m 2.10442,5.525506 h 1.62051 q 0.13504,0 0.97906,0.922794 v 1.631768 q 0,0.135043 -0.91154,0.979062 h -1.62051 q -0.13505,0 -0.96781,-0.922794 v -1.631768 q 0,-0.135043 0.90029,-0.979062 z"
         style="fill:#d45500;stroke-width:0.2;stroke-miterlimit:4;stroke-dasharray:none"
         id="path4740"
         inkscape:connector-curvature="0" />
      <path
         d="m 155.2965,50.791068 q -0.68647,0.641454 -0.70897,0.641454 v 9.115398 q 0.64145,0.708975 0.64145,0.720229 h 0.68647 q 1.49672,-1.474219 1.49672,-1.462966 v -7.494882 l -1.44045,-1.519233 z m 0.799,11.422381 q -1.50797,1.451712 -1.50797,1.462965 v 7.472376 q 1.45171,1.530486 1.44045,1.530486 h 0.68647 l 0.69772,-0.652707 v -9.115398 q -0.6302,-0.686468 -0.6302,-0.697722 z M 155.16146,50.45346 h 0.83276 q 0.1463,0.02251 1.75556,1.721798 v 7.629925 q 0,0.135043 -1.69929,1.800573 h -0.82151 q -0.1463,0 -0.97906,-0.922793 v -9.250441 q 0,-0.135043 0.91154,-0.979062 z m 0.799,11.422382 h 0.82151 q 0.13505,0 0.96781,0.900286 v 9.250441 q 0,0.146296 -0.91154,0.990315 h -0.81026 q -0.13504,0 -1.77806,-1.733051 v -7.629926 q 0.0225,-0.146296 1.71054,-1.778065 z"
         style="fill:#d45500;stroke-width:0.2;stroke-miterlimit:4;stroke-dasharray:none"
         id="path4742"
         inkscape:connector-curvature="0" />
      <path
         d="m 168.81204,50.7348 q -2.17194,0.05627 -6.17821,0.05627 -0.0563,0 -0.6302,0.663961 v 0.675214 q 1.45171,1.530487 1.44045,1.530487 h 10.76968 l 1.51923,-1.474219 v -0.686468 l -0.66396,-0.708975 q -4.15257,0 -6.25699,-0.05627 z m -7.7087,2.599576 q -0.68647,0.630201 -0.70897,0.630201 v 5.930635 l 0.64145,0.708975 h 0.73148 q 1.45171,-1.41795 1.45171,-1.406697 v -4.400149 q -1.38419,-1.462965 -1.39544,-1.462965 z m 0.90029,8.327648 q 1.39544,1.474218 1.38419,1.474218 h 9.31796 l 1.45171,-1.406697 q -1.38419,-1.451711 -1.39544,-1.451711 h -9.30671 z m 12.45771,1.159118 q -1.50798,1.462965 -1.51924,1.474219 v 4.321374 q 1.46297,1.530486 1.45172,1.530486 h 0.68646 q 0.68647,-0.652707 0.69773,-0.652707 v -5.964396 q -0.6302,-0.686469 -0.6302,-0.708976 z m -7.20229,6.943458 q -0.96781,0.05627 -3.06098,0.05627 h -2.39701 q -1.45171,1.395443 -1.45171,1.406697 v 0.686468 q 0.68647,0.75399 0.68647,0.765243 h 12.42395 q 0.75399,-0.697722 0.76524,-0.697722 v -0.697721 q -1.39544,-1.462965 -1.4067,-1.462965 h -2.44202 q -2.01439,0 -3.11724,-0.05627 z m 1.55299,-19.367407 q 2.11567,0.05627 6.40329,0.05627 l 0.85527,0.91154 v 0.821511 q 0,0.146297 -1.7218,1.811826 h -10.90472 q -0.13504,0 -1.77806,-1.744304 v -0.934047 q 0.76524,-0.866526 0.96781,-0.866526 4.00627,0 6.17821,-0.05627 z m -7.84374,2.599576 h 0.88903 q 0.1463,0.02251 1.69929,1.665529 v 4.535192 q 0,0.135043 -1.64302,1.744305 h -0.87778 q -0.1463,0 -0.97906,-0.922794 v -6.054424 q 0,-0.12379 0.91154,-0.967808 z m 2.352,6.943457 h 9.46425 q 0.1463,0.02251 1.84559,1.800573 l -1.78932,1.733051 h -9.453 q -0.13505,0 -1.7218,-1.676783 0.0225,-0.270086 1.65428,-1.856841 z m 11.00599,2.543309 h 0.82152 q 0.12378,0 0.9678,0.91154 v 6.099439 q 0,0.135043 -0.90028,0.990315 h -0.82151 q -0.13505,0 -1.78932,-1.733051 v -4.512685 q 0.045,-0.135043 1.72179,-1.755558 z m -7.06724,6.943457 q 1.1141,0.05627 3.11724,0.05627 h 2.46453 q 0.1463,0.02251 1.7218,1.66553 v 0.832764 q 0,0.135043 -0.96781,1.03533 h -12.55899 q -0.1463,0 -1.02408,-0.979062 V 71.20506 q 0.0225,-0.146297 1.65428,-1.721798 h 2.53205 q 2.08192,0 3.06098,-0.05627 z"
         style="fill:#d45500;stroke-width:0.2;stroke-miterlimit:4;stroke-dasharray:none"
         id="path4744"
         inkscape:connector-curvature="0" />
    </g>
    <flowRoot
       xml:space="preserve"
       id="flowRoot4773"
       style="font-style:normal;font-variant:normal;font-weight:normal;font-stretch:normal;font-size:40px;line-height:125%;font-family:'Bitstream Vera Serif';-inkscape-font-specification:'Bitstream Vera Serif';letter-spacing:0px;word-spacing:0px;fill-opacity:1;stroke:none;stroke-width:1px;stroke-linecap:butt;stroke-linejoin:miter;stroke-opacity:1;fill:#d45500;"
       transform="matrix(0.26458333,0,0,0.26458333,-1.3363473,-14.967097)"><flowRegion
         id="flowRegion4775"
         style="fill:#d45500;"><rect
           id="rect4777"
           width="243.44676"
           height="186.87822"
           x="382.84781"
           y="513.39771"
           style="fill:#d45500;" /></flowRegion><flowPara
         id="flowPara4779">Ahoj babi, jak se máš</flowPara><flowPara
         id="flowPara4781">2. řádek</flowPara></flowRoot>    <text
       y="-147.65308"
       x="52.051193"
       xml:space="preserve"
       style="font-style:normal;font-variant:normal;font-weight:normal;font-stretch:normal;font-size:10.58333302px;line-height:125%;font-family:'Digital Play Hollow St';-inkscape-font-specification:'Digital Play Hollow St';letter-spacing:0px;word-spacing:0px;fill:#008080;fill-opacity:1;stroke:none;stroke-width:0.26458332px;stroke-linecap:butt;stroke-linejoin:miter;stroke-opacity:1"
       id="text4542"
       transform="rotate(69.622807)"><tspan
         y="-147.65308"
         x="52.051193"
         style="font-style:oblique;font-variant:normal;font-weight:bold;font-stretch:normal;font-family:'Bitstream Vera Sans';-inkscape-font-specification:'Bitstream Vera Sans Bold Oblique';fill:#008080;stroke-width:0.26458332px"
         id="tspan4540">just mine</tspan></text>
    <text
       xml:space="preserve"
       style="font-style:normal;font-variant:normal;font-weight:normal;font-stretch:normal;font-size:10.58333302px;line-height:3.24555564px;font-family:'Digital Play Hollow St';-inkscape-font-specification:'Digital Play Hollow St';letter-spacing:0px;word-spacing:0px;fill:#a02c2c;fill-opacity:1;stroke:none;stroke-width:0.26458332px;stroke-linecap:butt;stroke-linejoin:miter;stroke-opacity:1;"
       x="0.53453851"
       y="0.11638848"
       id="text4558"><tspan
         sodipodi:role="line"
         id="tspan4556"
         x="0.53453851"
         y="0.11638848"
         style="font-style:normal;font-variant:normal;font-weight:normal;font-stretch:normal;font-size:7.05555534px;line-height:4.25449991px;font-family:'Bitstream Vera Sans';-inkscape-font-specification:'Bitstream Vera Sans';fill:#a02c2c;stroke-width:0.26458332px;">1 line</tspan><tspan
         sodipodi:role="line"
         x="0.53453851"
         y="7.3148031"
         style="font-style:normal;font-variant:normal;font-weight:normal;font-stretch:normal;font-size:7.05555534px;line-height:4.25449991px;font-family:'Bitstream Vera Sans';-inkscape-font-specification:'Bitstream Vera Sans';fill:#a02c2c;stroke-width:0.26458332px;"
         id="tspan4560">2 line</tspan><tspan
         sodipodi:role="line"
         x="0.53453851"
         y="14.513217"
         style="font-style:normal;font-variant:normal;font-weight:normal;font-stretch:normal;font-size:7.05555534px;line-height:4.25449991px;font-family:'Bitstream Vera Sans';-inkscape-font-specification:'Bitstream Vera Sans';fill:#a02c2c;stroke-width:0.26458332px;"
         id="tspan4562">3 line</tspan></text>
  </g>
</svg>
